<mxfile host="app.diagrams.net" modified="2024-04-04T13:40:07.006Z" agent="Mozilla/5.0 (Windows NT 10.0; Win64; x64) AppleWebKit/537.36 (KHTML, like Gecko) Chrome/123.0.0.0 Safari/537.36 Edg/123.0.0.0" etag="2RsOC8wFs-K4zWS2NZad" version="21.5.2" type="device">
  <diagram id="C5RBs43oDa-KdzZeNtuy" name="Page-1">
    <mxGraphModel dx="1282" dy="535" grid="1" gridSize="10" guides="1" tooltips="1" connect="1" arrows="1" fold="1" page="1" pageScale="1" pageWidth="827" pageHeight="1169" math="0" shadow="0">
      <root>
        <mxCell id="WIyWlLk6GJQsqaUBKTNV-0" />
        <mxCell id="WIyWlLk6GJQsqaUBKTNV-1" parent="WIyWlLk6GJQsqaUBKTNV-0" />
        <mxCell id="f5nwi_ArrfFm77Emx6rw-1" value="Class &lt;br&gt;Animals" style="shape=cube;whiteSpace=wrap;html=1;boundedLbl=1;backgroundOutline=1;darkOpacity=0.05;darkOpacity2=0.1;" vertex="1" parent="WIyWlLk6GJQsqaUBKTNV-1">
          <mxGeometry x="330" y="40" width="120" height="80" as="geometry" />
        </mxCell>
        <mxCell id="f5nwi_ArrfFm77Emx6rw-18" style="edgeStyle=orthogonalEdgeStyle;rounded=0;orthogonalLoop=1;jettySize=auto;html=1;exitX=0.5;exitY=0;exitDx=0;exitDy=0;entryX=0.487;entryY=1.025;entryDx=0;entryDy=0;entryPerimeter=0;" edge="1" parent="WIyWlLk6GJQsqaUBKTNV-1" source="f5nwi_ArrfFm77Emx6rw-2" target="f5nwi_ArrfFm77Emx6rw-1">
          <mxGeometry relative="1" as="geometry" />
        </mxCell>
        <mxCell id="f5nwi_ArrfFm77Emx6rw-2" value="Class &lt;br&gt;Home_animals" style="rounded=0;whiteSpace=wrap;html=1;" vertex="1" parent="WIyWlLk6GJQsqaUBKTNV-1">
          <mxGeometry x="120" y="160" width="120" height="60" as="geometry" />
        </mxCell>
        <mxCell id="f5nwi_ArrfFm77Emx6rw-23" style="edgeStyle=orthogonalEdgeStyle;rounded=0;orthogonalLoop=1;jettySize=auto;html=1;exitX=0.5;exitY=0;exitDx=0;exitDy=0;entryX=0.74;entryY=0.995;entryDx=0;entryDy=0;entryPerimeter=0;" edge="1" parent="WIyWlLk6GJQsqaUBKTNV-1" source="f5nwi_ArrfFm77Emx6rw-3" target="f5nwi_ArrfFm77Emx6rw-1">
          <mxGeometry relative="1" as="geometry" />
        </mxCell>
        <mxCell id="f5nwi_ArrfFm77Emx6rw-3" value="Class &lt;br&gt;Pack_animals" style="rounded=0;whiteSpace=wrap;html=1;" vertex="1" parent="WIyWlLk6GJQsqaUBKTNV-1">
          <mxGeometry x="560" y="160" width="120" height="60" as="geometry" />
        </mxCell>
        <mxCell id="f5nwi_ArrfFm77Emx6rw-17" style="edgeStyle=orthogonalEdgeStyle;rounded=0;orthogonalLoop=1;jettySize=auto;html=1;exitX=0.5;exitY=0;exitDx=0;exitDy=0;entryX=0.25;entryY=1;entryDx=0;entryDy=0;" edge="1" parent="WIyWlLk6GJQsqaUBKTNV-1" source="f5nwi_ArrfFm77Emx6rw-4" target="f5nwi_ArrfFm77Emx6rw-2">
          <mxGeometry relative="1" as="geometry" />
        </mxCell>
        <mxCell id="f5nwi_ArrfFm77Emx6rw-4" value="Class Dogs" style="swimlane;whiteSpace=wrap;html=1;" vertex="1" parent="WIyWlLk6GJQsqaUBKTNV-1">
          <mxGeometry x="40" y="280" width="80" height="110" as="geometry" />
        </mxCell>
        <mxCell id="f5nwi_ArrfFm77Emx6rw-15" value="" style="edgeStyle=orthogonalEdgeStyle;rounded=0;orthogonalLoop=1;jettySize=auto;html=1;" edge="1" parent="WIyWlLk6GJQsqaUBKTNV-1" source="f5nwi_ArrfFm77Emx6rw-5" target="f5nwi_ArrfFm77Emx6rw-2">
          <mxGeometry relative="1" as="geometry" />
        </mxCell>
        <mxCell id="f5nwi_ArrfFm77Emx6rw-5" value="Class Cat" style="swimlane;whiteSpace=wrap;html=1;" vertex="1" parent="WIyWlLk6GJQsqaUBKTNV-1">
          <mxGeometry x="140" y="280" width="80" height="110" as="geometry" />
        </mxCell>
        <mxCell id="f5nwi_ArrfFm77Emx6rw-16" style="edgeStyle=orthogonalEdgeStyle;rounded=0;orthogonalLoop=1;jettySize=auto;html=1;entryX=0.75;entryY=1;entryDx=0;entryDy=0;" edge="1" parent="WIyWlLk6GJQsqaUBKTNV-1" source="f5nwi_ArrfFm77Emx6rw-6" target="f5nwi_ArrfFm77Emx6rw-2">
          <mxGeometry relative="1" as="geometry" />
        </mxCell>
        <mxCell id="f5nwi_ArrfFm77Emx6rw-6" value="Class Hamster" style="swimlane;whiteSpace=wrap;html=1;" vertex="1" parent="WIyWlLk6GJQsqaUBKTNV-1">
          <mxGeometry x="240" y="280" width="90" height="110" as="geometry" />
        </mxCell>
        <mxCell id="f5nwi_ArrfFm77Emx6rw-19" style="edgeStyle=orthogonalEdgeStyle;rounded=0;orthogonalLoop=1;jettySize=auto;html=1;exitX=0.5;exitY=0;exitDx=0;exitDy=0;entryX=0.343;entryY=1.033;entryDx=0;entryDy=0;entryPerimeter=0;" edge="1" parent="WIyWlLk6GJQsqaUBKTNV-1" source="f5nwi_ArrfFm77Emx6rw-7" target="f5nwi_ArrfFm77Emx6rw-3">
          <mxGeometry relative="1" as="geometry" />
        </mxCell>
        <mxCell id="f5nwi_ArrfFm77Emx6rw-7" value="Class Horse" style="swimlane;whiteSpace=wrap;html=1;" vertex="1" parent="WIyWlLk6GJQsqaUBKTNV-1">
          <mxGeometry x="481" y="280" width="80" height="110" as="geometry" />
        </mxCell>
        <mxCell id="f5nwi_ArrfFm77Emx6rw-21" style="edgeStyle=orthogonalEdgeStyle;rounded=0;orthogonalLoop=1;jettySize=auto;html=1;exitX=0.5;exitY=0;exitDx=0;exitDy=0;entryX=0.5;entryY=1;entryDx=0;entryDy=0;" edge="1" parent="WIyWlLk6GJQsqaUBKTNV-1" source="f5nwi_ArrfFm77Emx6rw-8" target="f5nwi_ArrfFm77Emx6rw-3">
          <mxGeometry relative="1" as="geometry" />
        </mxCell>
        <mxCell id="f5nwi_ArrfFm77Emx6rw-8" value="Class Camel" style="swimlane;whiteSpace=wrap;html=1;" vertex="1" parent="WIyWlLk6GJQsqaUBKTNV-1">
          <mxGeometry x="580" y="280" width="80" height="110" as="geometry" />
        </mxCell>
        <mxCell id="f5nwi_ArrfFm77Emx6rw-22" style="edgeStyle=orthogonalEdgeStyle;rounded=0;orthogonalLoop=1;jettySize=auto;html=1;entryX=0.817;entryY=1.087;entryDx=0;entryDy=0;entryPerimeter=0;" edge="1" parent="WIyWlLk6GJQsqaUBKTNV-1" source="f5nwi_ArrfFm77Emx6rw-9" target="f5nwi_ArrfFm77Emx6rw-3">
          <mxGeometry relative="1" as="geometry">
            <Array as="points">
              <mxPoint x="726" y="250" />
              <mxPoint x="658" y="250" />
            </Array>
          </mxGeometry>
        </mxCell>
        <mxCell id="f5nwi_ArrfFm77Emx6rw-9" value="Class Donkey" style="swimlane;whiteSpace=wrap;html=1;" vertex="1" parent="WIyWlLk6GJQsqaUBKTNV-1">
          <mxGeometry x="681" y="280" width="90" height="110" as="geometry" />
        </mxCell>
      </root>
    </mxGraphModel>
  </diagram>
</mxfile>
